<?xml version="1.0" encoding="UTF-8" standalone="no"?>
<!-- Created with Inkscape (http://www.inkscape.org/) -->

<svg
   width="75mm"
   height="21mm"
   viewBox="0 0 75 21"
   version="1.1"
   id="svg8"
   inkscape:version="1.3.2 (1:1.3.2+202311252150+091e20ef0f)"
   sodipodi:docname="piero_logo.svg"
   xml:space="preserve"
   xmlns:inkscape="http://www.inkscape.org/namespaces/inkscape"
   xmlns:sodipodi="http://sodipodi.sourceforge.net/DTD/sodipodi-0.dtd"
   xmlns="http://www.w3.org/2000/svg"
   xmlns:svg="http://www.w3.org/2000/svg"
   xmlns:rdf="http://www.w3.org/1999/02/22-rdf-syntax-ns#"
   xmlns:cc="http://creativecommons.org/ns#"
   xmlns:dc="http://purl.org/dc/elements/1.1/"><defs
     id="defs2" /><sodipodi:namedview
     id="base"
     pagecolor="#ffffff"
     bordercolor="#666666"
     borderopacity="1.0"
     inkscape:pageopacity="0.0"
     inkscape:pageshadow="2"
     inkscape:zoom="2.0500838"
     inkscape:cx="206.33303"
     inkscape:cy="145.6038"
     inkscape:document-units="mm"
     inkscape:current-layer="layer1"
     showgrid="false"
     inkscape:window-width="1920"
     inkscape:window-height="1171"
     inkscape:window-x="1920"
     inkscape:window-y="0"
     inkscape:window-maximized="1"
     showguides="false"
     inkscape:snap-global="false"
     showborder="true"
     inkscape:snap-intersection-paths="true"
     inkscape:measure-start="0,0"
     inkscape:measure-end="0,0"
     inkscape:showpageshadow="false"
     inkscape:pagecheckerboard="0"
     inkscape:deskcolor="#ffffff"><inkscape:grid
       type="axonomgrid"
       id="grid937"
       units="mm"
       empspacing="5"
       gridanglex="20"
       gridanglez="20"
       originx="0"
       originy="0"
       spacingy="1"
       visible="false" /></sodipodi:namedview><metadata
     id="metadata5"><rdf:RDF><cc:Work
         rdf:about=""><dc:format>image/svg+xml</dc:format><dc:type
           rdf:resource="http://purl.org/dc/dcmitype/StillImage" /></cc:Work></rdf:RDF></metadata><g
     inkscape:label="Calque 1"
     inkscape:groupmode="layer"
     id="layer1"
     transform="translate(0,-237)"><g
       id="g1"
       transform="translate(-4.480001,-2.233965)"><circle
         style="fill:#42a279;fill-opacity:1;stroke-width:0.392504;stroke-linecap:round;stroke-linejoin:round"
         id="path2-3-2-7-3-5-3-4"
         cx="-117.94968"
         cy="-230.68011"
         r="7.7793598"
         transform="rotate(-168.35973)" /><path
         style="fill:#2d82c3;fill-opacity:1;stroke:none;stroke-width:0.0941508px;stroke-linecap:butt;stroke-linejoin:miter;stroke-opacity:1"
         d="m 67.833483,256.87843 c -1.745682,-2.49157 -0.677836,-8.2004 -0.234347,-10.35322 4.289774,0.80959 6.784261,1.88117 8.120446,5.02421 -1.44712,3.51376 -4.576205,5.65524 -7.886099,5.32901 z"
         id="path3-3-0-5-9-5-9"
         sodipodi:nodetypes="cccc" /><path
         id="path7-7-9-6-4-5-9"
         style="fill:#e7f9f2;fill-opacity:1;stroke:none;stroke-width:0.10385px;stroke-linecap:butt;stroke-linejoin:miter;stroke-opacity:1"
         d="m 75.719482,251.54942 c -1.336179,-3.14305 -3.830545,-4.21458 -8.120314,-5.02418 l 1.6089,3.68032 z" /><path
         id="path3-62-5-3-2-6-4-8"
         style="fill:#1f8a5d;fill-opacity:1;stroke:none;stroke-width:0.0941508px;stroke-linecap:butt;stroke-linejoin:miter;stroke-opacity:1"
         d="m 67.833446,256.87838 1.374581,-6.67262 -1.608859,-3.68052 c -0.443489,2.15283 -1.511403,7.86158 0.234278,10.35314 z" /><path
         id="path3-6-9-6-9-0-0-4"
         style="fill:#89e4be;fill-opacity:1;stroke:none;stroke-width:0.0941508px;stroke-linecap:butt;stroke-linejoin:miter;stroke-opacity:1"
         d="m 67.833446,256.87838 c 3.30989,0.32623 6.438921,-1.81521 7.886036,-5.32896 l -6.51143,-1.34379 z" /><path
         id="path2-3-2-7-3-5-3-4-5"
         style="fill:#42a279;fill-opacity:1;stroke-width:0.516275;stroke-linecap:round;stroke-linejoin:round"
         d="m 69.597588,239.5204 a 10.2325,10.2325 0 0 0 -10.639137,8.14937 10.2325,10.2325 0 0 0 0.09611,4.50619 c 0.350282,-0.21693 0.839414,-0.54895 1.372014,-0.91778 a 8.7146702,8.7146702 0 0 1 0.01861,-3.28248 8.7146702,8.7146702 0 0 1 9.060939,-6.94015 8.7146702,8.7146702 0 0 1 1.006661,0.13333 c 0.368182,-0.5319 0.698666,-1.01983 0.914157,-1.3684 a 10.2325,10.2325 0 0 0 -0.381896,-0.0884 10.2325,10.2325 0 0 0 -1.447456,-0.19172 z m 2.072233,0.34364 c 0.01211,0.40446 0.05403,0.98387 0.105934,1.61903 a 8.7146702,8.7146702 0 0 1 5.740213,10.00921 8.7146702,8.7146702 0 0 1 -1.97662,3.94807 c 0.285179,0.59963 0.546006,1.13073 0.734319,1.46865 a 10.2325,10.2325 0 0 0 2.729039,-5.11028 10.2325,10.2325 0 0 0 -7.332885,-11.93468 z m -12.539806,12.55997 a 10.2325,10.2325 0 0 0 7.785566,7.33236 10.2325,10.2325 0 0 0 9.229936,-2.7342 c -0.336502,-0.18699 -0.860492,-0.44381 -1.451591,-0.72501 a 8.7146702,8.7146702 0 0 1 -7.471901,1.97248 8.7146702,8.7146702 0 0 1 -6.468333,-5.73815 c -0.634566,-0.0521 -1.215854,-0.0946 -1.623677,-0.10748 z" /><path
         style="font-size:27.6928px;line-height:1.25;font-family:'TeX Gyre Adventor';-inkscape-font-specification:'TeX Gyre Adventor, Normal';letter-spacing:0px;word-spacing:0px;fill:#42a279;stroke-width:0.692321"
         d="m 42.243187,259.96652 h 2.049268 v -18.60956 h 2.880051 c 4.763162,0 6.867814,1.24618 6.867814,4.65239 0,3.68314 -1.938496,4.68008 -7.670905,4.68008 l 6.895507,9.27709 h 2.547738 l -5.73241,-7.64321 c 3.932378,-0.41539 6.037031,-2.60312 6.037031,-6.23088 0,-4.26469 -2.381581,-6.59089 -8.806311,-6.59089 h -5.067783 z"
         id="path12-6" /><path
         style="font-size:27.6928px;line-height:1.25;font-family:'TeX Gyre Adventor';-inkscape-font-specification:'TeX Gyre Adventor, Normal';letter-spacing:0px;word-spacing:0px;fill:#42a279;stroke-width:0.692321"
         d="m 27.399865,259.96652 h 11.187891 v -1.85542 h -9.138624 v -7.56013 h 8.834003 v -1.85542 h -8.834003 v -7.33859 h 9.138624 v -1.85542 H 27.399865 Z"
         id="path11-6" /><path
         style="font-size:27.6928px;line-height:1.25;font-family:'TeX Gyre Adventor';-inkscape-font-specification:'TeX Gyre Adventor, Normal';letter-spacing:0px;word-spacing:0px;fill:#42a279;stroke-width:0.692321"
         d="m 21.141297,259.96652 h 2.049267 v -20.46498 h -2.049267 z"
         id="path10-0" /><path
         id="text2-7-2-4"
         style="font-size:27.6928px;line-height:1.25;font-family:'TeX Gyre Adventor';-inkscape-font-specification:'TeX Gyre Adventor, Normal';letter-spacing:0px;word-spacing:0px;fill:#42a279;stroke-width:0.692321"
         d="m 4.7473788,239.50141 v 20.4649 h 2.04897 v -8.28011 h 3.9325772 c 5.566247,0 7.560262,-2.10456 7.560262,-5.98155 0,-4.29237 -2.270909,-6.20324 -7.892542,-6.20324 z m 2.04897,1.8557 h 2.907833 c 3.9046802,0 6.5076132,0.19363 6.5076132,4.34754 0,2.96313 -1.550524,4.12637 -5.621362,4.12637 H 6.7963488 Z" /></g></g></svg>
