<?xml version="1.0" encoding="UTF-8" standalone="no"?>
<!-- Created with Inkscape (http://www.inkscape.org/) -->

<svg
   width="22mm"
   height="29mm"
   viewBox="0 0 22 29"
   version="1.1"
   id="svg8"
   inkscape:version="1.3.2 (1:1.3.2+202311252150+091e20ef0f)"
   sodipodi:docname="piero_logo_compact.svg"
   xml:space="preserve"
   xmlns:inkscape="http://www.inkscape.org/namespaces/inkscape"
   xmlns:sodipodi="http://sodipodi.sourceforge.net/DTD/sodipodi-0.dtd"
   xmlns="http://www.w3.org/2000/svg"
   xmlns:svg="http://www.w3.org/2000/svg"
   xmlns:rdf="http://www.w3.org/1999/02/22-rdf-syntax-ns#"
   xmlns:cc="http://creativecommons.org/ns#"
   xmlns:dc="http://purl.org/dc/elements/1.1/"><defs
     id="defs2" /><sodipodi:namedview
     id="base"
     pagecolor="#ffffff"
     bordercolor="#666666"
     borderopacity="1.0"
     inkscape:pageopacity="0.0"
     inkscape:pageshadow="2"
     inkscape:zoom="2.0500838"
     inkscape:cx="206.33303"
     inkscape:cy="145.6038"
     inkscape:document-units="mm"
     inkscape:current-layer="layer1"
     showgrid="false"
     inkscape:window-width="1920"
     inkscape:window-height="1171"
     inkscape:window-x="1920"
     inkscape:window-y="0"
     inkscape:window-maximized="1"
     showguides="true"
     inkscape:snap-global="false"
     showborder="true"
     inkscape:snap-intersection-paths="true"
     inkscape:measure-start="0,0"
     inkscape:measure-end="0,0"
     inkscape:showpageshadow="false"
     inkscape:pagecheckerboard="0"
     inkscape:deskcolor="#ffffff"><inkscape:grid
       type="axonomgrid"
       id="grid937"
       units="mm"
       empspacing="5"
       gridanglex="20"
       gridanglez="20"
       originx="0"
       originy="0"
       spacingy="1"
       visible="false" /><sodipodi:guide
       position="-15.229054,51.456387"
       orientation="0,-1"
       id="guide1"
       inkscape:locked="false" /></sodipodi:namedview><metadata
     id="metadata5"><rdf:RDF><cc:Work
         rdf:about=""><dc:format>image/svg+xml</dc:format><dc:type
           rdf:resource="http://purl.org/dc/dcmitype/StillImage" /></cc:Work></rdf:RDF></metadata><g
     inkscape:label="Calque 1"
     inkscape:groupmode="layer"
     id="layer1"
     transform="translate(0,-237)"><g
       id="g1"
       transform="translate(-53.502803)"
       inkscape:export-filename="favicon.ico"
       inkscape:export-xdpi="24.829374"
       inkscape:export-ydpi="24.829374"><circle
         style="fill:#42a279;fill-opacity:1;stroke-width:0.392504;stroke-linecap:round;stroke-linejoin:round"
         id="path2-3-2-7-3-5-3-4"
         cx="-113.11108"
         cy="-229.39601"
         r="7.7793598"
         transform="rotate(-168.35973)" /><path
         style="fill:#2d82c3;fill-opacity:1;stroke:none;stroke-width:0.0941508px;stroke-linecap:butt;stroke-linejoin:miter;stroke-opacity:1"
         d="m 63.353482,254.64446 c -1.745682,-2.49157 -0.677836,-8.2004 -0.234347,-10.35322 4.289774,0.80959 6.784261,1.88117 8.120446,5.02421 -1.44712,3.51376 -4.576205,5.65524 -7.886099,5.32901 z"
         id="path3-3-0-5-9-5-9"
         sodipodi:nodetypes="cccc" /><path
         id="path7-7-9-6-4-5-9"
         style="fill:#e7f9f2;fill-opacity:1;stroke:none;stroke-width:0.10385px;stroke-linecap:butt;stroke-linejoin:miter;stroke-opacity:1"
         d="m 71.239481,249.31545 c -1.336179,-3.14305 -3.830545,-4.21458 -8.120314,-5.02418 l 1.6089,3.68032 z" /><path
         id="path3-62-5-3-2-6-4-8"
         style="fill:#1f8a5d;fill-opacity:1;stroke:none;stroke-width:0.0941508px;stroke-linecap:butt;stroke-linejoin:miter;stroke-opacity:1"
         d="m 63.353445,254.64441 1.374581,-6.67262 -1.608859,-3.68052 c -0.443489,2.15283 -1.511403,7.86158 0.234278,10.35314 z" /><path
         id="path3-6-9-6-9-0-0-4"
         style="fill:#89e4be;fill-opacity:1;stroke:none;stroke-width:0.0941508px;stroke-linecap:butt;stroke-linejoin:miter;stroke-opacity:1"
         d="m 63.353445,254.64441 c 3.30989,0.32623 6.438921,-1.81521 7.886036,-5.32896 l -6.51143,-1.34379 z" /><path
         id="path2-3-2-7-3-5-3-4-5"
         style="fill:#42a279;fill-opacity:1;stroke-width:0.516275;stroke-linecap:round;stroke-linejoin:round"
         d="m 65.117587,237.28643 a 10.2325,10.2325 0 0 0 -10.639137,8.14937 10.2325,10.2325 0 0 0 0.09611,4.50619 c 0.350282,-0.21693 0.839414,-0.54895 1.372014,-0.91778 a 8.7146702,8.7146702 0 0 1 0.01861,-3.28248 8.7146702,8.7146702 0 0 1 9.060939,-6.94014 8.7146702,8.7146702 0 0 1 1.006661,0.13333 c 0.368182,-0.53191 0.698666,-1.01984 0.914157,-1.36841 a 10.2325,10.2325 0 0 0 -0.381896,-0.0884 10.2325,10.2325 0 0 0 -1.447456,-0.19172 z m 2.072233,0.34364 c 0.01211,0.40446 0.05403,0.98387 0.105934,1.61903 a 8.7146702,8.7146702 0 0 1 5.740213,10.00921 8.7146702,8.7146702 0 0 1 -1.97662,3.94807 c 0.285179,0.59963 0.546006,1.13073 0.734319,1.46865 a 10.2325,10.2325 0 0 0 2.729039,-5.11028 10.2325,10.2325 0 0 0 -7.332885,-11.93468 z m -12.539806,12.55997 a 10.2325,10.2325 0 0 0 7.785566,7.33236 10.2325,10.2325 0 0 0 9.229936,-2.7342 c -0.336502,-0.18698 -0.860492,-0.4438 -1.451591,-0.72501 a 8.7146702,8.7146702 0 0 1 -7.471901,1.97249 8.7146702,8.7146702 0 0 1 -6.468333,-5.73815 c -0.634566,-0.0521 -1.215854,-0.0946 -1.623677,-0.10749 z" /></g><text
       xml:space="preserve"
       style="font-style:normal;font-weight:normal;font-size:7.55033px;line-height:1.25;font-family:sans-serif;letter-spacing:0px;word-spacing:0px;fill:#42a279;fill-opacity:1;stroke:none;stroke-width:0.18876"
       x="0.19549008"
       y="265.19492"
       id="text1"><tspan
         sodipodi:role="line"
         id="tspan1"
         style="font-style:normal;font-variant:normal;font-weight:normal;font-stretch:normal;font-size:7.55033px;font-family:'TeX Gyre Adventor';-inkscape-font-specification:'TeX Gyre Adventor, Normal';font-variant-ligatures:normal;font-variant-caps:normal;font-variant-numeric:normal;font-variant-east-asian:normal;fill:#42a279;fill-opacity:1;stroke-width:0.18876"
         x="0.19549008"
         y="265.19492">PIERO</tspan></text></g></svg>
