<?xml version="1.0" encoding="UTF-8" standalone="no"?>
<!-- Created with Inkscape (http://www.inkscape.org/) -->

<svg
   width="20.459639mm"
   height="20.462091mm"
   viewBox="0 0 20.459639 20.462091"
   version="1.1"
   id="svg8"
   inkscape:version="1.3.1 (9b9bdc1480, 2023-11-25, custom)"
   sodipodi:docname="favicon.svg"
   xml:space="preserve"
   xmlns:inkscape="http://www.inkscape.org/namespaces/inkscape"
   xmlns:sodipodi="http://sodipodi.sourceforge.net/DTD/sodipodi-0.dtd"
   xmlns="http://www.w3.org/2000/svg"
   xmlns:svg="http://www.w3.org/2000/svg"
   xmlns:rdf="http://www.w3.org/1999/02/22-rdf-syntax-ns#"
   xmlns:cc="http://creativecommons.org/ns#"
   xmlns:dc="http://purl.org/dc/elements/1.1/"><defs
     id="defs2" /><sodipodi:namedview
     id="base"
     pagecolor="#ffffff"
     bordercolor="#666666"
     borderopacity="1.0"
     inkscape:pageopacity="0.0"
     inkscape:pageshadow="2"
     inkscape:zoom="4.1001677"
     inkscape:cx="93.898598"
     inkscape:cy="24.023408"
     inkscape:document-units="mm"
     inkscape:current-layer="layer1"
     showgrid="false"
     inkscape:window-width="1920"
     inkscape:window-height="1109"
     inkscape:window-x="1920"
     inkscape:window-y="0"
     inkscape:window-maximized="1"
     showguides="true"
     inkscape:snap-global="false"
     showborder="true"
     inkscape:snap-intersection-paths="true"
     inkscape:measure-start="0,0"
     inkscape:measure-end="0,0"
     inkscape:showpageshadow="false"
     inkscape:pagecheckerboard="0"
     inkscape:deskcolor="#ffffff"><inkscape:grid
       type="axonomgrid"
       id="grid937"
       units="mm"
       empspacing="5"
       gridanglex="20"
       gridanglez="20"
       originx="-0.77018047"
       originy="-0.267807"
       spacingy="1"
       visible="false" /><sodipodi:guide
       position="-15.999234,51.724194"
       orientation="0,-1"
       id="guide1"
       inkscape:locked="false" /></sodipodi:namedview><metadata
     id="metadata5"><rdf:RDF><cc:Work
         rdf:about=""><dc:format>image/svg+xml</dc:format><dc:type
           rdf:resource="http://purl.org/dc/dcmitype/StillImage" /></cc:Work></rdf:RDF></metadata><g
     inkscape:label="Calque 1"
     inkscape:groupmode="layer"
     id="layer1"
     transform="translate(-0.77018044,-237.26781)"><g
       id="g2"
       transform="translate(-41.298569,-6.34677)"
       inkscape:export-filename="piero_logo_compact.png"
       inkscape:export-xdpi="130.34317"
       inkscape:export-ydpi="130.34317"><circle
         style="fill:#377c5f;fill-opacity:1;stroke-width:0.392504;stroke-linecap:round;stroke-linejoin:round"
         id="path2-3-2-7-3-5-3-4-3"
         cx="-102.4384"
         cy="-238.07466"
         r="7.7793598"
         transform="rotate(-168.35973)" /><path
         style="fill:#2d82c3;fill-opacity:1;stroke:none;stroke-width:0.0941508px;stroke-linecap:butt;stroke-linejoin:miter;stroke-opacity:1"
         d="m 51.149248,260.99123 c -1.745682,-2.49157 -0.677836,-8.2004 -0.234347,-10.35322 4.289774,0.80959 6.784261,1.88117 8.120446,5.02421 -1.44712,3.51376 -4.576205,5.65524 -7.886099,5.32901 z"
         id="path3-3-0-5-9-5-9-5"
         sodipodi:nodetypes="cccc" /><path
         id="path7-7-9-6-4-5-9-6"
         style="fill:#e1f2ea;fill-opacity:1;stroke:none;stroke-width:0.10385px;stroke-linecap:butt;stroke-linejoin:miter;stroke-opacity:1"
         d="m 59.035247,255.66222 c -1.336179,-3.14305 -3.830545,-4.21458 -8.120314,-5.02418 l 1.6089,3.68032 z" /><path
         id="path3-62-5-3-2-6-4-8-2"
         style="fill:#459c77;fill-opacity:1;stroke:none;stroke-width:0.0941508px;stroke-linecap:butt;stroke-linejoin:miter;stroke-opacity:1"
         d="m 51.149211,260.99118 1.374581,-6.67262 -1.608859,-3.68052 c -0.443489,2.15283 -1.511403,7.86158 0.234278,10.35314 z" /><path
         id="path3-6-9-6-9-0-0-4-9"
         style="fill:#a2d6c0;fill-opacity:1;stroke:none;stroke-width:0.0941508px;stroke-linecap:butt;stroke-linejoin:miter;stroke-opacity:1"
         d="m 51.149211,260.99118 c 3.30989,0.32623 6.438921,-1.81521 7.886036,-5.32896 l -6.51143,-1.34379 z" /><path
         id="path2-3-2-7-3-5-3-4-5-1"
         style="fill:#377c5f;fill-opacity:1;stroke-width:0.516275;stroke-linecap:round;stroke-linejoin:round"
         d="m 52.913353,243.6332 a 10.2325,10.2325 0 0 0 -10.639137,8.14937 10.2325,10.2325 0 0 0 0.09611,4.50619 c 0.350282,-0.21693 0.839414,-0.54895 1.372014,-0.91778 a 8.7146702,8.7146702 0 0 1 0.01861,-3.28248 8.7146702,8.7146702 0 0 1 9.060939,-6.94014 8.7146702,8.7146702 0 0 1 1.006661,0.13333 c 0.368182,-0.53191 0.698666,-1.01984 0.914157,-1.36841 a 10.2325,10.2325 0 0 0 -0.381896,-0.0884 10.2325,10.2325 0 0 0 -1.447456,-0.19172 z m 2.072233,0.34364 c 0.01211,0.40446 0.05403,0.98387 0.105934,1.61903 a 8.7146702,8.7146702 0 0 1 5.740213,10.00921 8.7146702,8.7146702 0 0 1 -1.97662,3.94807 c 0.285179,0.59963 0.546006,1.13073 0.734319,1.46865 a 10.2325,10.2325 0 0 0 2.729039,-5.11028 10.2325,10.2325 0 0 0 -7.332885,-11.93468 z M 42.44578,256.53681 a 10.2325,10.2325 0 0 0 7.785566,7.33236 10.2325,10.2325 0 0 0 9.229936,-2.7342 c -0.336502,-0.18698 -0.860492,-0.4438 -1.451591,-0.72501 a 8.7146702,8.7146702 0 0 1 -7.471901,1.97249 8.7146702,8.7146702 0 0 1 -6.468333,-5.73815 c -0.634566,-0.0521 -1.215854,-0.0946 -1.623677,-0.10749 z" /></g></g></svg>
